<mxfile host="app.diagrams.net" modified="2023-07-05T06:15:07.024Z" agent="Mozilla/5.0 (Macintosh; Intel Mac OS X 10_15_7) AppleWebKit/537.36 (KHTML, like Gecko) Chrome/114.0.0.0 Safari/537.36" version="21.5.1" etag="U9-u8I4dQ_oYMZyi5xsd" type="github">
  <diagram name="第 1 页" id="ZiBsRIRCFPkenW28eavg">
    <mxGraphModel>
      <root>
        <mxCell id="0" />
        <mxCell id="1" parent="0" />
      </root>
    </mxGraphModel>
  </diagram>
</mxfile>
